<?xml version="1.0" encoding="utf-8"?>
<!-- Generator: Adobe Illustrator 21.0.2, SVG Export Plug-In . SVG Version: 6.00 Build 0)  -->
<svg version="1.1" id="レイヤー_1" xmlns="http://www.w3.org/2000/svg" xmlns:xlink="http://www.w3.org/1999/xlink" x="0px"
	 y="0px" viewBox="0 0 282.3 124.8" style="enable-background:new 0 0 282.3 124.8;" xml:space="preserve">
<style type="text/css">
	.st0{fill:#FFFFFF;}
	.st1{fill:#006742;}
	.st2{fill:#FFFFFF;stroke:#FFFFFF;stroke-width:10;stroke-miterlimit:10;}
	.st3{fill:#FFFFFF;stroke:#006742;stroke-width:5;stroke-miterlimit:10;}
</style>
<g>
	<g>
		<g>
			<path class="st0" d="M141.2,3.3C65.3,3.3,3.9,29.8,3.9,62.4c0,32.6,61.5,59,137.3,59c75.8,0,137.3-26.4,137.3-59
				C278.4,20.5,211.8,3.3,141.2,3.3z M141.2,117C68.5,117,9.6,92.5,9.6,62.4c0-30.2,58.9-54.6,131.6-54.6
				c72.6,0,131.6,24.5,131.6,54.6C272.7,92.5,213.8,117,141.2,117z"/>
			<path class="st1" d="M141.2,7.8C68.5,7.8,9.6,32.2,9.6,62.4c0,30.1,58.9,54.6,131.6,54.6c72.6,0,131.6-24.4,131.6-54.6
				C272.7,32.2,213.8,7.8,141.2,7.8z"/>
			<path class="st1" d="M141.2,0C63.2,0,0,27.9,0,62.4c0,34.4,63.2,62.4,141.2,62.4c78,0,141.2-27.9,141.2-62.4
				C282.3,27.9,219.1,0,141.2,0z M141.2,121.4C65.3,121.4,3.9,95,3.9,62.4c0-32.6,61.5-59.1,137.3-59.1
				c75.8,0,137.3,26.5,137.3,59.1C278.4,95,217,121.4,141.2,121.4z"/>
		</g>
		<g>
			<g>
				<path class="st2" d="M72.8,85.2l0.6-3.4c1.5,0,2.5-0.2,3.2-0.8c0.6-0.4,1.1-1.4,1.4-2.9l5.6-32c0.3-1.5,0.1-2.4-0.4-2.8
					c-0.4-0.3-1.4-0.4-3-0.4l0.6-3.4h18L98.3,43c-1.5,0-2.6,0.2-3.1,0.5c-0.8,0.5-1.3,1.4-1.5,2.8l-5.6,32c-0.3,1.5-0.1,2.6,0.5,3
					c0.5,0.4,1.4,0.6,2.9,0.6l-0.6,3.4H72.8z"/>
				<path class="st2" d="M144,82.2c-2.8,2.1-6.3,3-10.6,3h-22.2l0.6-3.4c1.4,0,2.4-0.1,3.1-0.5c0.9-0.4,1.5-1.2,1.7-2.6l5.9-33.2
					c0.3-1.7-1-2.6-3.8-2.6l0.6-3.4h21.9c3.4,0,6.1,1,8.2,2.8c2.3,2.1,3.1,4.8,2.5,8.1c-0.9,5.4-4.1,8.8-9.5,10.2
					c2.8,0.6,4.8,2,6.1,4.1c1.3,2.2,1.6,4.8,1.1,7.8C148.9,76.9,147,80,144,82.2z M139.5,65.9c-1-2.1-2.7-3.2-5.1-3.2h-5.2
					l-2.8,16.1c-0.4,2.1,1.1,3,4.4,3c5,0,8.1-3.1,9.2-9.4C140.5,69.9,140.3,67.7,139.5,65.9z M136.5,43c-1.4,0-2.4,0.1-2.8,0.3
					c-0.8,0.3-1.3,1.1-1.5,2.3l-2.4,13.7h5.2c1.8,0,3.4-1,4.8-3.2c1.1-1.7,1.9-3.6,2.2-5.6C142.9,45.5,141.1,43,136.5,43z"/>
				<path class="st2" d="M201.4,82.2c-2.8,2.1-6.3,3-10.6,3h-22.2l0.6-3.4c1.4,0,2.4-0.1,3.1-0.5c0.9-0.4,1.5-1.2,1.7-2.6l5.9-33.2
					c0.3-1.7-1-2.6-3.8-2.6l0.6-3.4h21.9c3.4,0,6.1,1,8.2,2.8c2.3,2.1,3.1,4.8,2.5,8.1c-0.9,5.4-4.1,8.8-9.5,10.2
					c2.8,0.6,4.8,2,6.1,4.1c1.3,2.2,1.6,4.8,1.1,7.8C206.3,76.9,204.4,80,201.4,82.2z M196.9,65.9c-1-2.1-2.7-3.2-5.1-3.2h-5.2
					l-2.8,16.1c-0.4,2.1,1.1,3,4.4,3c5,0,8.1-3.1,9.2-9.4C197.9,69.9,197.7,67.7,196.9,65.9z M193.9,43c-1.4,0-2.4,0.1-2.8,0.3
					c-0.8,0.3-1.3,1.1-1.5,2.3l-2.4,13.7h5.2c1.8,0,3.4-1,4.8-3.2c1.1-1.7,1.9-3.6,2.2-5.6C200.3,45.5,198.5,43,193.9,43z"/>
				<path class="st2" d="M97,81.1c0-2.2,1.8-4,4-4l0,0c2.2,0,4,1.8,4,4l0,0c0,2.2-1.8,4-4,4l0,0C98.8,85.1,97,83.3,97,81.1L97,81.1z
					"/>
				<path class="st2" d="M154.4,81.1c0-2.2,1.8-4,4-4l0,0c2.2,0,4,1.8,4,4l0,0c0,2.2-1.8,4-4,4l0,0
					C156.2,85.1,154.4,83.3,154.4,81.1L154.4,81.1z"/>
			</g>
			<g>
				<path class="st3" d="M72.8,85.2l0.6-3.4c1.5,0,2.5-0.2,3.2-0.8c0.6-0.4,1.1-1.4,1.4-2.9l5.6-32c0.3-1.5,0.1-2.4-0.4-2.8
					c-0.4-0.3-1.4-0.4-3-0.4l0.6-3.4h18L98.3,43c-1.5,0-2.6,0.2-3.1,0.5c-0.8,0.5-1.3,1.4-1.5,2.8l-5.6,32c-0.3,1.5-0.1,2.6,0.5,3
					c0.5,0.4,1.4,0.6,2.9,0.6l-0.6,3.4H72.8z"/>
				<path class="st3" d="M144,82.2c-2.8,2.1-6.3,3-10.6,3h-22.2l0.6-3.4c1.4,0,2.4-0.1,3.1-0.5c0.9-0.4,1.5-1.2,1.7-2.6l5.9-33.2
					c0.3-1.7-1-2.6-3.8-2.6l0.6-3.4h21.9c3.4,0,6.1,1,8.2,2.8c2.3,2.1,3.1,4.8,2.5,8.1c-0.9,5.4-4.1,8.8-9.5,10.2
					c2.8,0.6,4.8,2,6.1,4.1c1.3,2.2,1.6,4.8,1.1,7.8C148.9,76.9,147,80,144,82.2z M139.5,65.9c-1-2.1-2.7-3.2-5.1-3.2h-5.2
					l-2.8,16.1c-0.4,2.1,1.1,3,4.4,3c5,0,8.1-3.1,9.2-9.4C140.5,69.9,140.3,67.7,139.5,65.9z M136.5,43c-1.4,0-2.4,0.1-2.8,0.3
					c-0.8,0.3-1.3,1.1-1.5,2.3l-2.4,13.7h5.2c1.8,0,3.4-1,4.8-3.2c1.1-1.7,1.9-3.6,2.2-5.6C142.9,45.5,141.1,43,136.5,43z"/>
				<path class="st3" d="M201.4,82.2c-2.8,2.1-6.3,3-10.6,3h-22.2l0.6-3.4c1.4,0,2.4-0.1,3.1-0.5c0.9-0.4,1.5-1.2,1.7-2.6l5.9-33.2
					c0.3-1.7-1-2.6-3.8-2.6l0.6-3.4h21.9c3.4,0,6.1,1,8.2,2.8c2.3,2.1,3.1,4.8,2.5,8.1c-0.9,5.4-4.1,8.8-9.5,10.2
					c2.8,0.6,4.8,2,6.1,4.1c1.3,2.2,1.6,4.8,1.1,7.8C206.3,76.9,204.4,80,201.4,82.2z M196.9,65.9c-1-2.1-2.7-3.2-5.1-3.2h-5.2
					l-2.8,16.1c-0.4,2.1,1.1,3,4.4,3c5,0,8.1-3.1,9.2-9.4C197.9,69.9,197.7,67.7,196.9,65.9z M193.9,43c-1.4,0-2.4,0.1-2.8,0.3
					c-0.8,0.3-1.3,1.1-1.5,2.3l-2.4,13.7h5.2c1.8,0,3.4-1,4.8-3.2c1.1-1.7,1.9-3.6,2.2-5.6C200.3,45.5,198.5,43,193.9,43z"/>
				<path class="st3" d="M97,81.1c0-2.2,1.8-4,4-4l0,0c2.2,0,4,1.8,4,4l0,0c0,2.2-1.8,4-4,4l0,0C98.8,85.1,97,83.3,97,81.1L97,81.1z
					"/>
				<path class="st3" d="M154.4,81.1c0-2.2,1.8-4,4-4l0,0c2.2,0,4,1.8,4,4l0,0c0,2.2-1.8,4-4,4l0,0
					C156.2,85.1,154.4,83.3,154.4,81.1L154.4,81.1z"/>
			</g>
			<g>
				<path class="st0" d="M72.8,85.2l0.6-3.4c1.5,0,2.5-0.2,3.2-0.8c0.6-0.4,1.1-1.4,1.4-2.9l5.6-32c0.3-1.5,0.1-2.4-0.4-2.8
					c-0.4-0.3-1.4-0.4-3-0.4l0.6-3.4h18L98.3,43c-1.5,0-2.6,0.2-3.1,0.5c-0.8,0.5-1.3,1.4-1.5,2.8l-5.6,32c-0.3,1.5-0.1,2.6,0.5,3
					c0.5,0.4,1.4,0.6,2.9,0.6l-0.6,3.4H72.8z"/>
				<path class="st0" d="M144,82.2c-2.8,2.1-6.3,3-10.6,3h-22.2l0.6-3.4c1.4,0,2.4-0.1,3.1-0.5c0.9-0.4,1.5-1.2,1.7-2.6l5.9-33.2
					c0.3-1.7-1-2.6-3.8-2.6l0.6-3.4h21.9c3.4,0,6.1,1,8.2,2.8c2.3,2.1,3.1,4.8,2.5,8.1c-0.9,5.4-4.1,8.8-9.5,10.2
					c2.8,0.6,4.8,2,6.1,4.1c1.3,2.2,1.6,4.8,1.1,7.8C148.9,76.9,147,80,144,82.2z M139.5,65.9c-1-2.1-2.7-3.2-5.1-3.2h-5.2
					l-2.8,16.1c-0.4,2.1,1.1,3,4.4,3c5,0,8.1-3.1,9.2-9.4C140.5,69.9,140.3,67.7,139.5,65.9z M136.5,43c-1.4,0-2.4,0.1-2.8,0.3
					c-0.8,0.3-1.3,1.1-1.5,2.3l-2.4,13.7h5.2c1.8,0,3.4-1,4.8-3.2c1.1-1.7,1.9-3.6,2.2-5.6C142.9,45.5,141.1,43,136.5,43z"/>
				<path class="st0" d="M201.4,82.2c-2.8,2.1-6.3,3-10.6,3h-22.2l0.6-3.4c1.4,0,2.4-0.1,3.1-0.5c0.9-0.4,1.5-1.2,1.7-2.6l5.9-33.2
					c0.3-1.7-1-2.6-3.8-2.6l0.6-3.4h21.9c3.4,0,6.1,1,8.2,2.8c2.3,2.1,3.1,4.8,2.5,8.1c-0.9,5.4-4.1,8.8-9.5,10.2
					c2.8,0.6,4.8,2,6.1,4.1c1.3,2.2,1.6,4.8,1.1,7.8C206.3,76.9,204.4,80,201.4,82.2z M196.9,65.9c-1-2.1-2.7-3.2-5.1-3.2h-5.2
					l-2.8,16.1c-0.4,2.1,1.1,3,4.4,3c5,0,8.1-3.1,9.2-9.4C197.9,69.9,197.7,67.7,196.9,65.9z M193.9,43c-1.4,0-2.4,0.1-2.8,0.3
					c-0.8,0.3-1.3,1.1-1.5,2.3l-2.4,13.7h5.2c1.8,0,3.4-1,4.8-3.2c1.1-1.7,1.9-3.6,2.2-5.6C200.3,45.5,198.5,43,193.9,43z"/>
				<path class="st0" d="M97,81.1c0-2.2,1.8-4,4-4l0,0c2.2,0,4,1.8,4,4l0,0c0,2.2-1.8,4-4,4l0,0C98.8,85.1,97,83.3,97,81.1L97,81.1z
					"/>
				<path class="st0" d="M154.4,81.1c0-2.2,1.8-4,4-4l0,0c2.2,0,4,1.8,4,4l0,0c0,2.2-1.8,4-4,4l0,0
					C156.2,85.1,154.4,83.3,154.4,81.1L154.4,81.1z"/>
			</g>
		</g>
	</g>
	<g>
		<path class="st0" d="M100.5,94.7v10.7h-2.4V94.7H100.5z"/>
		<path class="st0" d="M104.5,103.1v2.3h-2.4v-2.3H104.5z"/>
		<path class="st0" d="M111.1,94.7c0.5,0,1,0,1.4,0.1c0.4,0.1,0.8,0.2,1.1,0.4c0.3,0.2,0.5,0.5,0.7,0.8c0.2,0.3,0.2,0.8,0.2,1.3
			c0,0.5-0.1,1-0.4,1.3c-0.2,0.4-0.6,0.7-1.1,0.9c0.7,0.2,1.2,0.5,1.5,1c0.3,0.5,0.5,1,0.5,1.7c0,0.5-0.1,1-0.3,1.4
			c-0.2,0.4-0.5,0.7-0.8,1c-0.4,0.3-0.8,0.4-1.2,0.6c-0.5,0.1-0.9,0.2-1.4,0.2h-5.2V94.7H111.1z M110.8,99c0.4,0,0.8-0.1,1-0.3
			c0.3-0.2,0.4-0.5,0.4-1c0-0.3,0-0.5-0.1-0.6c-0.1-0.2-0.2-0.3-0.4-0.4c-0.2-0.1-0.3-0.2-0.5-0.2c-0.2,0-0.4-0.1-0.6-0.1h-2.2V99
			H110.8z M111,103.6c0.2,0,0.4,0,0.7-0.1c0.2,0,0.4-0.1,0.6-0.2c0.2-0.1,0.3-0.2,0.4-0.4c0.1-0.2,0.1-0.4,0.1-0.7
			c0-0.6-0.2-0.9-0.5-1.2c-0.3-0.2-0.7-0.4-1.2-0.4h-2.6v2.9H111z"/>
		<path class="st0" d="M118.6,103.1v2.3h-2.4v-2.3H118.6z"/>
		<path class="st0" d="M125.3,94.7c0.5,0,1,0,1.4,0.1c0.4,0.1,0.8,0.2,1.1,0.4c0.3,0.2,0.5,0.5,0.7,0.8c0.2,0.3,0.2,0.8,0.2,1.3
			c0,0.5-0.1,1-0.4,1.3c-0.2,0.4-0.6,0.7-1.1,0.9c0.7,0.2,1.2,0.5,1.5,1s0.5,1,0.5,1.7c0,0.5-0.1,1-0.3,1.4c-0.2,0.4-0.5,0.7-0.8,1
			c-0.4,0.3-0.8,0.4-1.2,0.6c-0.5,0.1-0.9,0.2-1.4,0.2h-5.2V94.7H125.3z M125,99c0.4,0,0.8-0.1,1-0.3c0.3-0.2,0.4-0.5,0.4-1
			c0-0.3,0-0.5-0.1-0.6c-0.1-0.2-0.2-0.3-0.4-0.4c-0.2-0.1-0.3-0.2-0.5-0.2c-0.2,0-0.4-0.1-0.6-0.1h-2.2V99H125z M125.1,103.6
			c0.2,0,0.5,0,0.7-0.1c0.2,0,0.4-0.1,0.6-0.2c0.2-0.1,0.3-0.2,0.4-0.4c0.1-0.2,0.1-0.4,0.1-0.7c0-0.6-0.2-0.9-0.5-1.2
			c-0.3-0.2-0.7-0.4-1.2-0.4h-2.6v2.9H125.1z"/>
		<path class="st0" d="M141.8,97.6c-0.1-0.2-0.3-0.4-0.5-0.6c-0.2-0.2-0.4-0.3-0.7-0.4c-0.3-0.1-0.5-0.1-0.8-0.1
			c-0.5,0-1,0.1-1.4,0.3s-0.7,0.5-0.9,0.8c-0.2,0.3-0.4,0.7-0.5,1.2c-0.1,0.4-0.2,0.9-0.2,1.4c0,0.4,0.1,0.9,0.2,1.3
			c0.1,0.4,0.3,0.8,0.5,1.1c0.2,0.3,0.5,0.6,0.9,0.8c0.4,0.2,0.8,0.3,1.4,0.3c0.7,0,1.3-0.2,1.7-0.7c0.4-0.4,0.7-1,0.7-1.7h2.3
			c-0.1,0.7-0.2,1.3-0.5,1.8c-0.3,0.5-0.6,1-1,1.4c-0.4,0.4-0.9,0.7-1.4,0.9c-0.5,0.2-1.2,0.3-1.8,0.3c-0.8,0-1.6-0.1-2.2-0.4
			c-0.7-0.3-1.2-0.7-1.7-1.2c-0.4-0.5-0.8-1.1-1-1.8c-0.2-0.7-0.4-1.4-0.4-2.2c0-0.8,0.1-1.5,0.4-2.2c0.2-0.7,0.6-1.3,1-1.8
			c0.5-0.5,1-0.9,1.7-1.2c0.7-0.3,1.4-0.4,2.2-0.4c0.6,0,1.1,0.1,1.7,0.3c0.5,0.2,1,0.4,1.4,0.7c0.4,0.3,0.8,0.7,1,1.2
			c0.3,0.5,0.4,1,0.5,1.6h-2.3C142.1,98,142,97.8,141.8,97.6z"/>
		<path class="st0" d="M145.6,99.9c0.2-0.5,0.5-0.9,0.8-1.3c0.3-0.4,0.8-0.6,1.3-0.8c0.5-0.2,1-0.3,1.7-0.3c0.6,0,1.2,0.1,1.7,0.3
			c0.5,0.2,0.9,0.5,1.3,0.8c0.4,0.4,0.6,0.8,0.8,1.3c0.2,0.5,0.3,1.1,0.3,1.7c0,0.6-0.1,1.2-0.3,1.7c-0.2,0.5-0.5,0.9-0.8,1.3
			c-0.4,0.4-0.8,0.6-1.3,0.8c-0.5,0.2-1,0.3-1.7,0.3c-0.6,0-1.2-0.1-1.7-0.3c-0.5-0.2-0.9-0.5-1.3-0.8c-0.3-0.4-0.6-0.8-0.8-1.3
			c-0.2-0.5-0.3-1.1-0.3-1.7C145.3,100.9,145.4,100.4,145.6,99.9z M147.5,102.4c0.1,0.3,0.2,0.6,0.3,0.8c0.1,0.2,0.3,0.4,0.6,0.6
			c0.2,0.1,0.5,0.2,0.9,0.2c0.4,0,0.7-0.1,0.9-0.2c0.2-0.1,0.4-0.3,0.6-0.6c0.1-0.2,0.2-0.5,0.3-0.8c0.1-0.3,0.1-0.6,0.1-0.9
			c0-0.3,0-0.6-0.1-0.9c-0.1-0.3-0.2-0.6-0.3-0.8c-0.1-0.2-0.3-0.4-0.6-0.6c-0.2-0.1-0.5-0.2-0.9-0.2c-0.4,0-0.7,0.1-0.9,0.2
			c-0.2,0.1-0.4,0.3-0.6,0.6c-0.1,0.2-0.2,0.5-0.3,0.8c-0.1,0.3-0.1,0.6-0.1,0.9C147.4,101.9,147.5,102.2,147.5,102.4z"/>
		<path class="st0" d="M157.2,103.1v2.3h-2.4v-2.3H157.2z"/>
		<path class="st0" d="M160.8,103.1v2.3c0,0.3-0.1,0.7-0.2,0.9c-0.1,0.3-0.3,0.5-0.5,0.7c-0.2,0.2-0.5,0.4-0.7,0.5
			c-0.3,0.1-0.6,0.2-0.9,0.3v-1.1c0.2,0,0.3-0.1,0.4-0.2c0.1-0.1,0.3-0.2,0.4-0.3c0.1-0.1,0.2-0.3,0.2-0.4c0-0.2,0.1-0.3,0.1-0.5
			h-1.1v-2.3H160.8z"/>
		<path class="st0" d="M165,94.7v8.7h5.2v2h-7.6V94.7H165z"/>
		<path class="st0" d="M175.6,97.7v1.4h-1.6v3.8c0,0.4,0.1,0.6,0.2,0.7c0.1,0.1,0.4,0.2,0.7,0.2c0.1,0,0.2,0,0.3,0
			c0.1,0,0.2,0,0.3,0v1.7c-0.2,0-0.4,0-0.6,0.1c-0.2,0-0.4,0-0.6,0c-0.3,0-0.6,0-0.9-0.1c-0.3,0-0.6-0.1-0.8-0.3
			c-0.2-0.1-0.4-0.3-0.5-0.6c-0.1-0.2-0.2-0.6-0.2-0.9v-4.6h-1.3v-1.4h1.3v-2.3h2.1v2.3H175.6z"/>
		<path class="st0" d="M182.1,104.4c-0.3,0.4-0.6,0.7-1,0.9c-0.4,0.2-0.9,0.3-1.4,0.3c-0.6,0-1.1-0.1-1.5-0.3
			c-0.4-0.2-0.8-0.5-1.1-0.9c-0.3-0.4-0.5-0.8-0.6-1.3c-0.1-0.5-0.2-1-0.2-1.6c0-0.5,0.1-1,0.2-1.5c0.1-0.5,0.4-0.9,0.6-1.3
			c0.3-0.4,0.6-0.7,1.1-0.9c0.4-0.2,0.9-0.3,1.5-0.3c0.5,0,0.9,0.1,1.3,0.3c0.4,0.2,0.7,0.5,1,0.9h0v-3.9h2.1v10.7h-2L182.1,104.4
			L182.1,104.4z M182.1,100.6c-0.1-0.3-0.2-0.6-0.3-0.8c-0.1-0.2-0.3-0.4-0.6-0.5c-0.2-0.1-0.5-0.2-0.9-0.2c-0.4,0-0.6,0.1-0.9,0.2
			c-0.2,0.1-0.4,0.3-0.6,0.6c-0.1,0.2-0.3,0.5-0.3,0.8c-0.1,0.3-0.1,0.6-0.1,0.9c0,0.3,0,0.6,0.1,0.9c0.1,0.3,0.2,0.6,0.3,0.8
			c0.2,0.2,0.3,0.4,0.6,0.6c0.2,0.1,0.5,0.2,0.8,0.2c0.4,0,0.6-0.1,0.9-0.2c0.2-0.1,0.4-0.3,0.6-0.6c0.1-0.2,0.2-0.5,0.3-0.8
			c0.1-0.3,0.1-0.6,0.1-0.9C182.1,101.2,182.1,100.9,182.1,100.6z"/>
	</g>
	<g>
		<path class="st0" d="M72.3,19.8v8h-1.8v-8H72.3z"/>
		<path class="st0" d="M75.3,22v0.8h0c0.2-0.3,0.5-0.6,0.8-0.7c0.3-0.2,0.7-0.2,1-0.2c0.4,0,0.8,0.1,1.1,0.2
			c0.3,0.1,0.5,0.3,0.6,0.5c0.2,0.2,0.3,0.5,0.3,0.8c0.1,0.3,0.1,0.6,0.1,1v3.6h-1.6v-3.3c0-0.5-0.1-0.8-0.2-1.1
			c-0.1-0.2-0.4-0.4-0.8-0.4c-0.4,0-0.8,0.1-0.9,0.4c-0.2,0.3-0.3,0.7-0.3,1.3v3h-1.6V22H75.3z"/>
		<path class="st0" d="M83.6,22V23h-1.2v2.9c0,0.3,0,0.4,0.1,0.5c0.1,0.1,0.3,0.1,0.5,0.1c0.1,0,0.2,0,0.3,0c0.1,0,0.2,0,0.2,0v1.2
			c-0.1,0-0.3,0-0.5,0c-0.2,0-0.3,0-0.5,0c-0.2,0-0.5,0-0.7-0.1c-0.2,0-0.4-0.1-0.6-0.2c-0.2-0.1-0.3-0.2-0.4-0.4
			c-0.1-0.2-0.1-0.4-0.1-0.7V23h-1V22h1v-1.7h1.6V22H83.6z"/>
		<path class="st0" d="M86.1,26.4c0.2,0.2,0.6,0.3,1,0.3c0.3,0,0.6-0.1,0.8-0.2c0.2-0.2,0.4-0.3,0.4-0.5h1.4c-0.2,0.7-0.6,1.2-1,1.5
			c-0.5,0.3-1,0.5-1.7,0.5c-0.5,0-0.9-0.1-1.2-0.2c-0.4-0.1-0.7-0.4-0.9-0.6c-0.3-0.3-0.5-0.6-0.6-1c-0.1-0.4-0.2-0.8-0.2-1.2
			c0-0.4,0.1-0.8,0.2-1.2s0.3-0.7,0.6-1c0.3-0.3,0.6-0.5,0.9-0.6c0.4-0.2,0.8-0.2,1.2-0.2c0.5,0,0.9,0.1,1.3,0.3
			c0.4,0.2,0.7,0.4,0.9,0.8c0.2,0.3,0.4,0.7,0.5,1.1c0.1,0.4,0.1,0.8,0.1,1.3h-4.2C85.7,25.8,85.8,26.2,86.1,26.4z M87.9,23.3
			C87.7,23.1,87.4,23,87,23c-0.3,0-0.5,0-0.6,0.1c-0.2,0.1-0.3,0.2-0.4,0.3c-0.1,0.1-0.2,0.3-0.2,0.4c0,0.1-0.1,0.3-0.1,0.4h2.6
			C88.2,23.9,88.1,23.5,87.9,23.3z"/>
		<path class="st0" d="M92.3,22v1.1h0c0.1-0.2,0.2-0.3,0.3-0.5c0.1-0.2,0.3-0.3,0.4-0.4c0.2-0.1,0.3-0.2,0.5-0.3
			c0.2-0.1,0.4-0.1,0.6-0.1c0.1,0,0.2,0,0.3,0.1v1.5c-0.1,0-0.2,0-0.3,0c-0.1,0-0.2,0-0.3,0c-0.3,0-0.5,0-0.7,0.1
			c-0.2,0.1-0.4,0.2-0.5,0.4c-0.1,0.2-0.2,0.4-0.3,0.6c-0.1,0.2-0.1,0.5-0.1,0.7v2.6h-1.6V22H92.3z"/>
		<path class="st0" d="M96.9,22v0.8h0c0.2-0.3,0.5-0.6,0.8-0.7c0.3-0.2,0.7-0.2,1-0.2c0.4,0,0.8,0.1,1.1,0.2
			c0.3,0.1,0.5,0.3,0.6,0.5c0.2,0.2,0.3,0.5,0.3,0.8c0.1,0.3,0.1,0.6,0.1,1v3.6h-1.6v-3.3c0-0.5-0.1-0.8-0.2-1.1
			c-0.2-0.2-0.4-0.4-0.8-0.4c-0.4,0-0.8,0.1-0.9,0.4c-0.2,0.3-0.3,0.7-0.3,1.3v3h-1.6V22H96.9z"/>
		<path class="st0" d="M102.3,22.8c0.2-0.2,0.4-0.4,0.6-0.6c0.3-0.1,0.5-0.3,0.9-0.3c0.3-0.1,0.6-0.1,1-0.1c0.3,0,0.6,0,0.9,0.1
			c0.3,0,0.6,0.1,0.8,0.2c0.2,0.1,0.5,0.3,0.6,0.5c0.2,0.2,0.2,0.5,0.2,0.8v3c0,0.3,0,0.5,0,0.8c0,0.2,0.1,0.4,0.2,0.5h-1.6
			c0-0.1-0.1-0.2-0.1-0.3c0-0.1,0-0.2,0-0.3c-0.3,0.3-0.6,0.4-0.9,0.6c-0.3,0.1-0.7,0.2-1.1,0.2c-0.3,0-0.5,0-0.8-0.1
			c-0.2-0.1-0.5-0.2-0.6-0.3c-0.2-0.1-0.3-0.3-0.4-0.5c-0.1-0.2-0.2-0.5-0.2-0.8c0-0.3,0.1-0.6,0.2-0.8c0.1-0.2,0.3-0.4,0.5-0.5
			c0.2-0.1,0.4-0.2,0.6-0.3c0.2-0.1,0.5-0.1,0.7-0.2c0.2,0,0.5-0.1,0.7-0.1c0.2,0,0.4-0.1,0.6-0.1c0.2,0,0.3-0.1,0.4-0.2
			c0.1-0.1,0.2-0.2,0.1-0.4c0-0.2,0-0.3-0.1-0.4c-0.1-0.1-0.1-0.2-0.2-0.2c-0.1-0.1-0.2-0.1-0.3-0.1c-0.1,0-0.3,0-0.4,0
			c-0.3,0-0.6,0.1-0.7,0.2c-0.2,0.1-0.3,0.4-0.3,0.7H102C102,23.4,102.1,23.1,102.3,22.8z M105.4,25.1c-0.1,0-0.2,0.1-0.3,0.1
			c-0.1,0-0.2,0-0.4,0.1c-0.1,0-0.3,0-0.4,0.1c-0.1,0-0.2,0.1-0.4,0.1c-0.1,0-0.2,0.1-0.3,0.2c-0.1,0.1-0.2,0.1-0.2,0.2
			c-0.1,0.1-0.1,0.2-0.1,0.4c0,0.1,0,0.3,0.1,0.4c0.1,0.1,0.1,0.2,0.2,0.2c0.1,0.1,0.2,0.1,0.3,0.1c0.1,0,0.2,0,0.4,0
			c0.3,0,0.6-0.1,0.7-0.2c0.2-0.1,0.3-0.2,0.4-0.4c0.1-0.1,0.1-0.3,0.2-0.4c0-0.2,0-0.3,0-0.4v-0.6C105.6,25,105.5,25,105.4,25.1z"
			/>
		<path class="st0" d="M111.7,22V23h-1.2v2.9c0,0.3,0,0.4,0.1,0.5c0.1,0.1,0.3,0.1,0.5,0.1c0.1,0,0.2,0,0.3,0c0.1,0,0.2,0,0.2,0v1.2
			c-0.1,0-0.3,0-0.5,0c-0.2,0-0.3,0-0.5,0c-0.2,0-0.5,0-0.7-0.1c-0.2,0-0.4-0.1-0.6-0.2c-0.2-0.1-0.3-0.2-0.4-0.4
			c-0.1-0.2-0.1-0.4-0.1-0.7V23h-1V22h1v-1.7h1.6V22H111.7z"/>
		<path class="st0" d="M112.5,21.1v-1.3h1.6v1.3H112.5z M114.1,22v5.8h-1.6V22H114.1z"/>
		<path class="st0" d="M115.4,23.6c0.1-0.4,0.3-0.7,0.6-1c0.3-0.3,0.6-0.5,0.9-0.6c0.4-0.1,0.8-0.2,1.2-0.2c0.5,0,0.9,0.1,1.2,0.2
			c0.4,0.1,0.7,0.4,1,0.6c0.3,0.3,0.5,0.6,0.6,1c0.1,0.4,0.2,0.8,0.2,1.3c0,0.5-0.1,0.9-0.2,1.3s-0.3,0.7-0.6,1
			c-0.3,0.3-0.6,0.5-1,0.6c-0.4,0.1-0.8,0.2-1.2,0.2c-0.5,0-0.9-0.1-1.2-0.2c-0.4-0.1-0.7-0.3-0.9-0.6c-0.3-0.3-0.5-0.6-0.6-1
			c-0.1-0.4-0.2-0.8-0.2-1.3C115.2,24.4,115.3,24,115.4,23.6z M116.9,25.6c0,0.2,0.1,0.4,0.2,0.6c0.1,0.2,0.3,0.3,0.4,0.4
			c0.2,0.1,0.4,0.2,0.7,0.2c0.3,0,0.5-0.1,0.7-0.2c0.2-0.1,0.3-0.2,0.4-0.4c0.1-0.2,0.2-0.4,0.2-0.6c0-0.2,0.1-0.4,0.1-0.7
			c0-0.2,0-0.5-0.1-0.7c0-0.2-0.1-0.4-0.2-0.6c-0.1-0.2-0.3-0.3-0.4-0.4c-0.2-0.1-0.4-0.2-0.7-0.2c-0.3,0-0.5,0.1-0.7,0.2
			c-0.2,0.1-0.3,0.2-0.4,0.4c-0.1,0.2-0.2,0.4-0.2,0.6c0,0.2-0.1,0.5-0.1,0.7C116.8,25.1,116.8,25.3,116.9,25.6z"/>
		<path class="st0" d="M123.8,22v0.8h0c0.2-0.3,0.5-0.6,0.8-0.7c0.3-0.2,0.7-0.2,1-0.2c0.4,0,0.8,0.1,1.1,0.2
			c0.3,0.1,0.5,0.3,0.6,0.5c0.2,0.2,0.3,0.5,0.3,0.8c0.1,0.3,0.1,0.6,0.1,1v3.6h-1.6v-3.3c0-0.5-0.1-0.8-0.2-1.1
			c-0.1-0.2-0.4-0.4-0.8-0.4c-0.4,0-0.8,0.1-0.9,0.4c-0.2,0.3-0.3,0.7-0.3,1.3v3h-1.6V22H123.8z"/>
		<path class="st0" d="M129.1,22.8c0.2-0.2,0.4-0.4,0.6-0.6c0.3-0.1,0.5-0.3,0.9-0.3s0.6-0.1,1-0.1c0.3,0,0.6,0,0.9,0.1
			c0.3,0,0.6,0.1,0.8,0.2c0.2,0.1,0.4,0.3,0.6,0.5c0.2,0.2,0.2,0.5,0.2,0.8v3c0,0.3,0,0.5,0,0.8c0,0.2,0.1,0.4,0.2,0.5h-1.6
			c0-0.1-0.1-0.2-0.1-0.3c0-0.1,0-0.2,0-0.3c-0.3,0.3-0.6,0.4-0.9,0.6c-0.3,0.1-0.7,0.2-1.1,0.2c-0.3,0-0.5,0-0.8-0.1
			c-0.2-0.1-0.5-0.2-0.6-0.3c-0.2-0.1-0.3-0.3-0.4-0.5c-0.1-0.2-0.2-0.5-0.2-0.8c0-0.3,0.1-0.6,0.2-0.8c0.1-0.2,0.3-0.4,0.4-0.5
			c0.2-0.1,0.4-0.2,0.6-0.3c0.2-0.1,0.5-0.1,0.7-0.2c0.2,0,0.5-0.1,0.7-0.1c0.2,0,0.4-0.1,0.6-0.1c0.2,0,0.3-0.1,0.4-0.2
			c0.1-0.1,0.2-0.2,0.1-0.4c0-0.2,0-0.3-0.1-0.4c-0.1-0.1-0.1-0.2-0.2-0.2c-0.1-0.1-0.2-0.1-0.3-0.1c-0.1,0-0.3,0-0.4,0
			c-0.3,0-0.6,0.1-0.7,0.2c-0.2,0.1-0.3,0.4-0.3,0.7h-1.6C128.9,23.4,129,23.1,129.1,22.8z M132.3,25.1c-0.1,0-0.2,0.1-0.3,0.1
			c-0.1,0-0.2,0-0.4,0.1c-0.1,0-0.3,0-0.4,0.1c-0.1,0-0.2,0.1-0.4,0.1c-0.1,0-0.2,0.1-0.3,0.2c-0.1,0.1-0.2,0.1-0.2,0.2
			c-0.1,0.1-0.1,0.2-0.1,0.4c0,0.1,0,0.3,0.1,0.4c0.1,0.1,0.1,0.2,0.2,0.2c0.1,0.1,0.2,0.1,0.3,0.1c0.1,0,0.2,0,0.4,0
			c0.3,0,0.6-0.1,0.7-0.2c0.2-0.1,0.3-0.2,0.4-0.4c0.1-0.1,0.1-0.3,0.2-0.4c0-0.2,0-0.3,0-0.4v-0.6C132.5,25,132.4,25,132.3,25.1z"
			/>
		<path class="st0" d="M137,19.8v8h-1.6v-8H137z"/>
		<path class="st0" d="M145.4,19.8c0.4,0,0.7,0,1,0.1c0.3,0.1,0.6,0.2,0.8,0.3c0.2,0.2,0.4,0.4,0.5,0.6c0.1,0.3,0.2,0.6,0.2,0.9
			c0,0.4-0.1,0.7-0.3,1c-0.2,0.3-0.5,0.5-0.8,0.7c0.5,0.1,0.9,0.4,1.1,0.7c0.2,0.4,0.4,0.8,0.4,1.3c0,0.4-0.1,0.8-0.2,1.1
			c-0.2,0.3-0.4,0.5-0.6,0.7c-0.3,0.2-0.6,0.3-0.9,0.4c-0.3,0.1-0.7,0.1-1.1,0.1h-3.9v-8H145.4z M145.1,23c0.3,0,0.6-0.1,0.8-0.2
			c0.2-0.2,0.3-0.4,0.3-0.7c0-0.2,0-0.3-0.1-0.5c-0.1-0.1-0.2-0.2-0.3-0.3c-0.1-0.1-0.2-0.1-0.4-0.1c-0.1,0-0.3,0-0.5,0h-1.7V23
			H145.1z M145.2,26.4c0.2,0,0.3,0,0.5-0.1c0.2,0,0.3-0.1,0.4-0.2c0.1-0.1,0.2-0.2,0.3-0.3c0.1-0.1,0.1-0.3,0.1-0.5
			c0-0.4-0.1-0.7-0.3-0.9c-0.2-0.2-0.5-0.3-0.9-0.3h-1.9v2.2H145.2z"/>
		<path class="st0" d="M149.4,21.1v-1.3h1.6v1.3H149.4z M151,22v5.8h-1.6V22H151z"/>
		<path class="st0" d="M153.8,22v0.8h0c0.2-0.3,0.5-0.6,0.8-0.7c0.3-0.2,0.7-0.2,1-0.2c0.4,0,0.8,0.1,1.1,0.2
			c0.3,0.1,0.5,0.3,0.6,0.5c0.2,0.2,0.3,0.5,0.3,0.8c0.1,0.3,0.1,0.6,0.1,1v3.6h-1.6v-3.3c0-0.5-0.1-0.8-0.2-1.1
			c-0.1-0.2-0.4-0.4-0.8-0.4c-0.4,0-0.8,0.1-0.9,0.4c-0.2,0.3-0.3,0.7-0.3,1.3v3h-1.6V22H153.8z"/>
		<path class="st0" d="M164.4,28.2c-0.1,0.3-0.2,0.6-0.4,0.8c-0.2,0.3-0.5,0.5-0.9,0.7c-0.4,0.2-0.9,0.3-1.6,0.3
			c-0.3,0-0.6,0-0.9-0.1c-0.3-0.1-0.6-0.2-0.8-0.3c-0.2-0.2-0.4-0.3-0.6-0.6c-0.2-0.2-0.3-0.5-0.3-0.8h1.6c0.1,0.3,0.2,0.5,0.4,0.6
			c0.2,0.1,0.5,0.2,0.8,0.2c0.4,0,0.8-0.1,1-0.4c0.2-0.3,0.3-0.6,0.3-1v-0.8h0c-0.2,0.3-0.4,0.5-0.7,0.7c-0.3,0.1-0.7,0.2-1,0.2
			c-0.4,0-0.8-0.1-1.1-0.2c-0.3-0.2-0.6-0.4-0.8-0.6c-0.2-0.3-0.4-0.6-0.4-0.9c-0.1-0.4-0.1-0.7-0.1-1.1c0-0.4,0.1-0.7,0.2-1.1
			c0.1-0.3,0.3-0.7,0.5-0.9c0.2-0.3,0.5-0.5,0.8-0.6c0.3-0.2,0.7-0.2,1.1-0.2c0.4,0,0.7,0.1,1,0.2c0.3,0.1,0.5,0.4,0.7,0.7h0V22h1.5
			v5.4C164.5,27.6,164.5,27.9,164.4,28.2z M162.2,26.3c0.2-0.1,0.3-0.2,0.4-0.4c0.1-0.2,0.2-0.3,0.3-0.5c0.1-0.2,0.1-0.4,0.1-0.6
			c0-0.2,0-0.5-0.1-0.7c0-0.2-0.1-0.4-0.2-0.6c-0.1-0.2-0.2-0.3-0.4-0.4c-0.2-0.1-0.4-0.1-0.7-0.1c-0.2,0-0.4,0-0.6,0.1
			c-0.2,0.1-0.3,0.2-0.4,0.4c-0.1,0.2-0.2,0.3-0.2,0.5c0,0.2-0.1,0.4-0.1,0.6c0,0.2,0,0.4,0.1,0.6c0,0.2,0.1,0.4,0.2,0.6
			c0.1,0.2,0.2,0.3,0.4,0.4c0.2,0.1,0.4,0.2,0.6,0.2C161.9,26.4,162,26.4,162.2,26.3z"/>
		<path class="st0" d="M165.8,23.6c0.1-0.4,0.3-0.7,0.6-1c0.3-0.3,0.6-0.5,0.9-0.6c0.4-0.1,0.8-0.2,1.2-0.2c0.5,0,0.9,0.1,1.2,0.2
			c0.4,0.1,0.7,0.4,1,0.6c0.3,0.3,0.5,0.6,0.6,1c0.1,0.4,0.2,0.8,0.2,1.3c0,0.5-0.1,0.9-0.2,1.3c-0.1,0.4-0.3,0.7-0.6,1
			c-0.3,0.3-0.6,0.5-1,0.6c-0.4,0.1-0.8,0.2-1.2,0.2c-0.5,0-0.9-0.1-1.2-0.2c-0.4-0.1-0.7-0.3-0.9-0.6c-0.3-0.3-0.5-0.6-0.6-1
			c-0.1-0.4-0.2-0.8-0.2-1.3C165.6,24.4,165.7,24,165.8,23.6z M167.3,25.6c0,0.2,0.1,0.4,0.2,0.6c0.1,0.2,0.3,0.3,0.4,0.4
			c0.2,0.1,0.4,0.2,0.7,0.2c0.3,0,0.5-0.1,0.7-0.2c0.2-0.1,0.3-0.2,0.4-0.4c0.1-0.2,0.2-0.4,0.2-0.6c0-0.2,0.1-0.4,0.1-0.7
			c0-0.2,0-0.5-0.1-0.7c0-0.2-0.1-0.4-0.2-0.6c-0.1-0.2-0.3-0.3-0.4-0.4c-0.2-0.1-0.4-0.2-0.7-0.2c-0.3,0-0.5,0.1-0.7,0.2
			c-0.2,0.1-0.3,0.2-0.4,0.4c-0.1,0.2-0.2,0.4-0.2,0.6c0,0.2-0.1,0.5-0.1,0.7C167.2,25.1,167.2,25.3,167.3,25.6z"/>
		<path class="st0" d="M179.7,19.8c0.4,0,0.7,0,1,0.1c0.3,0.1,0.6,0.2,0.8,0.3c0.2,0.2,0.4,0.4,0.5,0.6c0.1,0.3,0.2,0.6,0.2,0.9
			c0,0.4-0.1,0.7-0.3,1c-0.2,0.3-0.5,0.5-0.8,0.7c0.5,0.1,0.9,0.4,1.1,0.7c0.2,0.4,0.4,0.8,0.4,1.3c0,0.4-0.1,0.8-0.2,1.1
			c-0.2,0.3-0.4,0.5-0.6,0.7s-0.6,0.3-0.9,0.4c-0.3,0.1-0.7,0.1-1.1,0.1H176v-8H179.7z M179.5,23c0.3,0,0.6-0.1,0.8-0.2
			c0.2-0.2,0.3-0.4,0.3-0.7c0-0.2,0-0.3-0.1-0.5c-0.1-0.1-0.2-0.2-0.3-0.3c-0.1-0.1-0.2-0.1-0.4-0.1c-0.1,0-0.3,0-0.5,0h-1.7V23
			H179.5z M179.6,26.4c0.2,0,0.3,0,0.5-0.1c0.2,0,0.3-0.1,0.4-0.2s0.2-0.2,0.3-0.3c0.1-0.1,0.1-0.3,0.1-0.5c0-0.4-0.1-0.7-0.3-0.9
			c-0.2-0.2-0.5-0.3-0.9-0.3h-1.9v2.2H179.6z"/>
		<path class="st0" d="M183.9,22.8c0.2-0.2,0.4-0.4,0.6-0.6c0.3-0.1,0.5-0.3,0.9-0.3c0.3-0.1,0.6-0.1,1-0.1c0.3,0,0.6,0,0.9,0.1
			c0.3,0,0.6,0.1,0.8,0.2c0.2,0.1,0.4,0.3,0.6,0.5c0.2,0.2,0.2,0.5,0.2,0.8v3c0,0.3,0,0.5,0,0.8c0,0.2,0.1,0.4,0.2,0.5h-1.6
			c0-0.1-0.1-0.2-0.1-0.3c0-0.1,0-0.2,0-0.3c-0.3,0.3-0.6,0.4-0.9,0.6c-0.3,0.1-0.7,0.2-1.1,0.2c-0.3,0-0.5,0-0.8-0.1
			c-0.2-0.1-0.5-0.2-0.6-0.3c-0.2-0.1-0.3-0.3-0.4-0.5c-0.1-0.2-0.2-0.5-0.2-0.8c0-0.3,0.1-0.6,0.2-0.8c0.1-0.2,0.3-0.4,0.5-0.5
			c0.2-0.1,0.4-0.2,0.6-0.3c0.2-0.1,0.5-0.1,0.7-0.2c0.2,0,0.5-0.1,0.7-0.1c0.2,0,0.4-0.1,0.6-0.1c0.2,0,0.3-0.1,0.4-0.2
			c0.1-0.1,0.2-0.2,0.1-0.4c0-0.2,0-0.3-0.1-0.4c-0.1-0.1-0.1-0.2-0.2-0.2c-0.1-0.1-0.2-0.1-0.3-0.1c-0.1,0-0.3,0-0.4,0
			c-0.3,0-0.6,0.1-0.7,0.2c-0.2,0.1-0.3,0.4-0.3,0.7h-1.6C183.7,23.4,183.8,23.1,183.9,22.8z M187.1,25.1c-0.1,0-0.2,0.1-0.3,0.1
			c-0.1,0-0.2,0-0.4,0.1c-0.1,0-0.3,0-0.4,0.1c-0.1,0-0.2,0.1-0.4,0.1c-0.1,0-0.2,0.1-0.3,0.2c-0.1,0.1-0.2,0.1-0.2,0.2
			c-0.1,0.1-0.1,0.2-0.1,0.4c0,0.1,0,0.3,0.1,0.4c0.1,0.1,0.1,0.2,0.2,0.2c0.1,0.1,0.2,0.1,0.3,0.1c0.1,0,0.2,0,0.4,0
			c0.3,0,0.6-0.1,0.7-0.2c0.2-0.1,0.3-0.2,0.4-0.4c0.1-0.1,0.1-0.3,0.2-0.4c0-0.2,0-0.3,0-0.4v-0.6C187.3,25,187.2,25,187.1,25.1z"
			/>
		<path class="st0" d="M191.7,22v0.8h0c0.2-0.3,0.5-0.6,0.8-0.7c0.3-0.2,0.7-0.2,1-0.2c0.4,0,0.8,0.1,1.1,0.2
			c0.3,0.1,0.5,0.3,0.6,0.5c0.2,0.2,0.3,0.5,0.3,0.8c0.1,0.3,0.1,0.6,0.1,1v3.6H194v-3.3c0-0.5-0.1-0.8-0.2-1.1
			c-0.2-0.2-0.4-0.4-0.8-0.4c-0.4,0-0.8,0.1-0.9,0.4s-0.3,0.7-0.3,1.3v3h-1.6V22H191.7z"/>
		<path class="st0" d="M198.6,19.8v4.3l2-2.1h1.9l-2.2,2.1l2.4,3.7h-1.9l-1.6-2.6l-0.6,0.6v2H197v-8H198.6z"/>
		<path class="st0" d="M203.3,21.1v-1.3h1.6v1.3H203.3z M204.9,22v5.8h-1.6V22H204.9z"/>
		<path class="st0" d="M207.7,22v0.8h0c0.2-0.3,0.5-0.6,0.8-0.7c0.3-0.2,0.7-0.2,1-0.2c0.4,0,0.8,0.1,1.1,0.2
			c0.3,0.1,0.5,0.3,0.6,0.5c0.2,0.2,0.3,0.5,0.3,0.8c0.1,0.3,0.1,0.6,0.1,1v3.6h-1.6v-3.3c0-0.5-0.1-0.8-0.2-1.1
			c-0.1-0.2-0.4-0.4-0.8-0.4c-0.4,0-0.8,0.1-0.9,0.4c-0.2,0.3-0.3,0.7-0.3,1.3v3h-1.6V22H207.7z"/>
	</g>
</g>
</svg>
